<?xml version="1.0" encoding="utf-8"?>
<!-- Generator: Adobe Illustrator 19.1.0, SVG Export Plug-In . SVG Version: 6.00 Build 0)  -->
<!DOCTYPE svg PUBLIC "-//W3C//DTD SVG 1.1//EN" "http://www.w3.org/Graphics/SVG/1.1/DTD/svg11.dtd">
<svg version="1.1" id="Layer_1" xmlns="http://www.w3.org/2000/svg" xmlns:xlink="http://www.w3.org/1999/xlink" x="0px" y="0px"
	 width="42px" height="42px" viewBox="0 0 42 42" style="enable-background:new 0 0 42 42;" xml:space="preserve">
<path d="M41.8,21c0-15.2-16.5-25.5-30.1-18.7C-1.8,9-3.8,28,8,37.4c7,5.6,17.1,6,24.6,1c0.6-0.3,1-0.6,1.5-1.1
	C38.7,33.4,41.8,27.6,41.8,21z M38.4,21c0,4.1-1.4,7.9-3.9,10.9c-1.1-1.6-3.2-2-5.1-1.9h-1.8h-0.3c-0.7,0-5.1-0.3-3-2l0.1,0.1
	c2.6,1.1,6.4,0.9,8.3-1.5c1.8-2.3,0.9-5.6-1.8-6.6c-0.1-0.5,0.5-1.7,0.9-0.9l0.3,0.5c1.2,1.9,3.8-0.7,2.2-2.5
	c-1.2-1.4-3.9-1.3-5.2-0.1l0-0.8c0-0.5-0.3-2,0.6-2h0.6c1.5,0,1.4-2.5,0.4-3.1c-1.1-0.6-2.9,0.1-4.1,0c-1.1-0.1-2.9-0.7-3.8,0.2
	c-1,1-0.3,2.7,1.1,2.5c0,0,0.1,0,0.2,0c1.3,0,1.1,1.7,0.4,2.3C23.5,17,22,16.8,21.1,16c-1.8-1.6-1.6-5.3-0.8-7.4
	c0.8-2.1,3.9-3.2,5-0.7c0.5,1.2,0.5,2.4,2.2,2.3c1.4-0.1,1.7-1.1,1.6-2.3c-0.2-0.7,0-1.6,0.1-2.3C34.7,8.6,38.4,14.4,38.4,21z
	 M24,34.5c0-0.5,0.4-1,1.3-1.3c0.7,0.1,1.2,0.1,1.7,0.1h0.8c0.8,0,2.2-0.2,2.8,0.6c0.5,0.7,0.1,1.4-0.6,1.8
	C28.7,36.3,24,36.6,24,34.5z M27.5,22c2.4,0,2.4,3.8,0,3.8C25.1,25.8,25.1,22,27.5,22z M20.1,3.5c-3.7,1.2-4.8,5.2-4.7,8.7
	c-3.2,0.2-6.5,0.2-9.7,0C8.7,7.2,14,3.8,20.1,3.5C20,3.5,20,3.5,20.1,3.5z M4.6,25.5c-0.3-0.1-0.4-0.1-0.6-0.1
	c-0.8-3.2-0.8-6.7,0.3-9.9c1.3-0.2,1.5,0.2,1.5,1.5v6.9C5.8,24.9,5.7,25.8,4.6,25.5C4.3,25.5,4.8,25.6,4.6,25.5z M5.3,28.8l1.2-0.1
	c0.5,0,1.2-0.1,2.1-0.1h2.2c2.4,0,4.9,0.4,7.3,0.2c2.3-0.2,1.2-3,1.4-4.7c0.1-1,0.3-2.4-0.6-3.1c-0.7-0.5-1.9-0.4-2.5,0.2
	c-0.9,0.9-0.2,2-0.4,3.1c-0.2,1.3-1.8,1.2-2.8,1.2h-1.4c-1,0-1.5-0.4-1.5-1.5v-1.9c0-0.6,0.5-1,1.1-0.8c0.6,0.2,0.6,0.6,0.6,1.2v0.1
	c0,1.1,1.2,1.7,2.1,1c1-0.8,0.3-3,0.3-4c0-0.9,0.6-2.7-0.1-3.5c-1-0.9-2.2,0-2.2,1.1v0.3c0,1-1.7,1.1-1.7,0v-1.4
	c0-0.5,0.1-0.8,0.4-1c0.2-0.1,0.5-0.1,1.1-0.1h2.4c2.3,0,1.1,1.3,1.4,2.9c0.3,1.6,2.4,2,3.3,0.7c2.2,1.3,5,1.2,7.1-0.4v0.1
	c0,0.2,0,0.4,0.1,0.5c-3.2,0.5-6.4,4.1-3.7,7.1c-1.4,0.6-2.4,1.5-2.3,3.2c0.1,1.3,1,2.1,2.3,2.4c-3.6,1.1-3.6,5-0.4,6.7
	C15,38.9,8.4,35,5.3,28.8z"/>
</svg>
