<?xml version="1.0" encoding="utf-8"?>
<!-- Generator: Adobe Illustrator 19.1.0, SVG Export Plug-In . SVG Version: 6.00 Build 0)  -->
<!DOCTYPE svg PUBLIC "-//W3C//DTD SVG 1.1//EN" "http://www.w3.org/Graphics/SVG/1.1/DTD/svg11.dtd">
<svg version="1.1" id="Layer_1" xmlns="http://www.w3.org/2000/svg" xmlns:xlink="http://www.w3.org/1999/xlink" x="0px" y="0px"
	 width="218.6px" height="197.7px" viewBox="0 0 218.6 197.7" style="enable-background:new 0 0 218.6 197.7;" xml:space="preserve"
	>
<style type="text/css">
	.st0{fill:#FCF7E0;}
	.st1{fill:#FFDD15;}
</style>
<g>
	<path class="st0" d="M204.6,130.7c12.6-11.3-11.4-49-12.8-59.8c-1.9-15.1,13.6-29.1-1.8-40c-12.4-8.8-32.5-1.6-46.2-8.1
		c-12.5-6-16.4-20.4-31.3-22.6C98.2-1.8,84.9,8.9,75,18C63.1,29.1,59.4,31.9,43.9,36.9c-17.5,5.7-14.5,8.7-15.2,25.4
		c-0.8,17.4-3.3,14.2-13.9,26.1c-13.6,15.3-2,16.8,2.8,33.1c5,17.2,0,21.7,18.1,31.3c18,9.6,20.9,15.7,32.2,32.4
		c19.2,28.3,41.8-1.1,68.4,4.7c17.5,3.8,26.6,7.2,36-12.7c4.4-9.5,3.6-16.9,10-25.7C187.7,143.6,197.5,137.2,204.6,130.7z"/>
	<circle class="st1" cx="108.3" cy="98.9" r="58.7"/>
	<g>
		<path d="M0,66.8h57.8v18.6H22.3v6.9h33.1v16.4H22.3v7.4h36v18.6H0V66.8z"/>
		<path d="M71.3,100.9v-0.2c0-20.2,16-35.4,37.4-35.4c11.6,0,21,3.9,28.4,10.3l-12.7,15.3c-4.5-3.8-9.4-5.9-15-5.9
			c-8.8,0-15.2,6.8-15.2,16v0.2c0,9.6,6.7,16.2,16.2,16.2c3.9,0,6-0.6,7.8-1.6V109h-11.6V94.5h32.8v31.4c-7.4,6-17.6,10.2-29.9,10.2
			C88.2,136,71.3,121.9,71.3,100.9z"/>
		<path d="M150.6,100.9v-0.2c0-20.2,16-35.4,37.4-35.4c11.6,0,21,3.9,28.4,10.3l-12.7,15.3c-4.5-3.8-9.4-5.9-15-5.9
			c-8.8,0-15.2,6.8-15.2,16v0.2c0,9.6,6.7,16.2,16.2,16.2c3.9,0,6-0.6,7.8-1.6V109h-11.6V94.5h32.8v31.4c-7.4,6-17.6,10.2-29.9,10.2
			C167.5,136,150.6,121.9,150.6,100.9z"/>
	</g>
</g>
</svg>
